Coordinates
version=1
nRows=14
nColumns=42
inDegrees=yes

Units are S.I. units (second, meters, Newtons, ...)
If the header above contains a line with 'inDegrees', this indicates whether rotational values are in degrees (yes) or radians (no).

endheader
time	pelvis_tilt	pelvis_list	pelvis_rotation	pelvis_tx	pelvis_ty	pelvis_tz	hip_flexion_r	hip_adduction_r	hip_rotation_r	knee_angle_r	knee_adduction_r	knee_angle_r_beta	ankle_angle_r	subtalar_angle_r	mtp_angle_r	hip_flexion_l	hip_adduction_l	hip_rotation_l	knee_angle_l	knee_adduction_l	knee_angle_l_beta	ankle_angle_l	subtalar_angle_l	mtp_angle_l	lumbar_extension	lumbar_bending	lumbar_rotation	arm_flex_r	arm_add_r	arm_rot_r	elbow_flex_r	pro_sup_r	wrist_flex_r	wrist_dev_r	arm_flex_l	arm_add_l	arm_rot_l	elbow_flex_l	pro_sup_l	wrist_flex_l	wrist_dev_l
      1.45000000	     10.08029666	     -1.43427985	     10.70409256	     -0.16033317	      0.87725613	      0.19713062	     -7.34249685	      9.54368011	      0.64231804	     13.99324998	      1.36366071	      0.24422829	     20.24114779	    -11.58359537	     -7.55926564	     16.17243816	      1.52516457	      1.96569413	     52.72985503	     -8.97902729	      0.92030958	     15.85384588	    -14.55351716	     -7.55926564	    -39.88638966	      5.82546984	     -2.11927609	     17.41698244	     -9.62078538	     -5.45044181	     37.02826027	     90.00000001	      0.00000000	      0.00000000	     14.34376475	     -7.74491776	    -14.59466878	     25.36670737	     90.00000001	      0.00000000	      0.00000000
      1.46000000	     10.44633797	     -1.13677081	     10.58591250	     -0.15176550	      0.87778419	      0.19690021	     -8.91035803	      9.29906831	      1.55616668	     13.12711459	      1.62340565	      0.22911137	     20.42770297	    -11.93820016	     -7.55514244	     16.06566365	      1.96271231	      2.34937389	     50.18118377	     -8.27650333	      0.87582688	     15.39740536	    -14.55742956	     -7.55514244	    -40.24319356	      5.56673047	     -2.17025170	     17.94235601	     -9.86892933	     -4.64784453	     37.58580202	     90.00000001	      0.00000000	      0.00000000	     14.34782914	     -7.52284510	    -16.34338014	     24.42559444	     90.00000001	      0.00000000	      0.00000000
      1.47000000	     10.23867510	     -1.30167558	     10.59407939	     -0.14376363	      0.87649557	      0.19692091	     -9.18662671	      9.69284049	      1.47670215	     13.28977945	      1.32520573	      0.23195041	     20.98250309	    -11.75739013	     -7.55413252	     17.13790656	      1.91612776	      2.38706444	     48.23385429	     -7.84107657	      0.84183957	     15.33397171	    -13.88463599	     -7.55413252	    -39.92286352	      5.70296817	     -2.06615228	     18.44762098	    -10.02087945	     -4.54097302	     37.99129475	     90.00000001	      0.00000000	      0.00000000	     13.93185100	     -7.45176268	    -16.40468189	     24.22135618	     90.00000001	      0.00000000	      0.00000000
      1.48000000	     10.21973786	     -1.30331203	     10.49685837	     -0.13555403	      0.87565613	      0.19696490	     -9.80752969	      9.84383432	      1.54144806	     13.29627313	      1.21040930	      0.23206374	     21.65092649	    -11.56722791	     -7.55291955	     17.71857020	      1.93499898	      2.47208557	     45.87144337	     -7.16127490	      0.80060772	     15.23290439	    -13.23723243	     -7.55291955	    -39.82914170	      5.65737641	     -1.98486540	     18.94810100	    -10.16336661	     -4.26285389	     38.42808868	     90.00000001	      0.00000000	      0.00000000	     13.62417414	     -7.40623178	    -16.67450021	     23.84024954	     90.00000001	      0.00000000	      0.00000000
      1.49000000	     10.41124503	     -1.16358568	     10.40601824	     -0.12708659	      0.87527088	      0.19657159	    -10.93335351	      9.71742031	      1.80980980	     12.85854263	      1.39772742	      0.22442391	     22.02847104	    -11.28520591	     -7.55088212	     17.81210353	      2.13961886	      2.38210273	     43.14042505	     -6.66235817	      0.75294246	     15.00355016	    -12.78457353	     -7.55088212	    -39.95934397	      5.54583261	     -1.98137213	     19.43805934	    -10.37268332	     -3.75618659	     38.92091889	     90.00000001	      0.00000000	      0.00000000	     13.41354093	     -7.28665978	    -17.46262612	     23.42508189	     90.00000001	      0.00000000	      0.00000000
      1.50000000	     10.45987166	     -1.18234153	     10.32174753	     -0.11876723	      0.87439020	      0.19636390	    -11.78004571	      9.86905183	      2.05505516	     12.57473808	      1.31746374	      0.21947058	     22.43648276	    -11.20130600	     -7.54841422	     18.19112907	      2.10902444	      2.07778812	     40.57551324	     -6.17976002	      0.70817630	     14.79533329	    -12.09406086	     -7.54841422	    -39.93406433	      5.56061597	     -1.91062296	     19.93521749	    -10.54533185	     -3.38130391	     39.35133205	     90.00000001	      0.00000000	      0.00000000	     13.15681277	     -7.17710776	    -18.17274567	     23.17000141	     90.00000001	      0.00000000	      0.00000000
      1.51000000	     10.46881326	     -1.21870335	     10.17630082	     -0.11047344	      0.87332492	      0.19622684	    -12.48284003	      9.99338759	      2.18382345	     12.49713920	      1.27811884	      0.21811623	     22.97398491	    -10.99123846	     -7.54665004	     18.55893786	      2.00104664	      1.62740921	     37.93592793	     -5.65001337	      0.66210685	     14.75310283	    -11.13192821	     -7.54665004	    -39.87337253	      5.55286699	     -1.78582888	     20.43635895	    -10.68748751	     -3.08566198	     39.74463773	     90.00000001	      0.00000000	      0.00000000	     12.87851591	     -7.09528369	    -18.55506101	     22.97077359	     90.00000001	      0.00000000	      0.00000000
      1.52000000	     10.47949645	     -1.26948678	     10.02254428	     -0.10216569	      0.87219407	      0.19607202	    -13.18224734	     10.14884062	      2.26698682	     12.43475929	      1.17457626	      0.21702749	     23.54288399	    -10.68024448	     -7.54525248	     18.87794342	      1.82225188	      1.02337407	     35.30007068	     -5.08836363	      0.61610246	     14.68730022	     -9.98910598	     -7.54525248	    -39.81552074	      5.55650499	     -1.65905086	     20.93465026	    -10.80181027	     -2.79353401	     40.12680831	     90.00000001	      0.00000000	      0.00000000	     12.59825216	     -7.02937951	    -18.87021066	     22.85250050	     90.00000001	      0.00000000	      0.00000000
      1.53000000	     10.64388792	     -1.25169720	      9.89631774	     -0.09360525	      0.87133055	      0.19561075	    -14.30440058	     10.17947339	      2.57534478	     11.92062340	      1.20285635	      0.20805413	     23.86746730	    -10.39641282	     -7.54241548	     18.90138536	      1.75604637	      0.04626777	     32.57738929	     -4.80202193	      0.56858270	     14.74256282	     -8.40194592	     -7.54241548	    -39.90812200	      5.54845622	     -1.58533667	     21.38912058	    -10.95120760	     -2.36588409	     40.52213961	     90.00000001	      0.00000000	      0.00000000	     12.38182285	     -6.90526994	    -19.56337430	     22.71509026	     90.00000001	      0.00000000	      0.00000000
      1.54000000	     10.46673507	     -1.47489493	      9.79442039	     -0.08553645	      0.86958323	      0.19543609	    -14.64327025	     10.56997420	      2.50163043	     12.06247519	      0.91729941	      0.21052991	     24.45073590	    -10.16633512	     -7.54157826	     19.52515142	      1.40766230	     -0.60848284	     30.32316507	     -4.20269132	      0.52923907	     14.70384510	     -7.38006857	     -7.54157826	    -39.65765746	      5.70367459	     -1.39303155	     21.84706593	    -11.05744207	     -2.20997912	     40.80041318	     90.00000001	      0.00000000	      0.00000000	     12.11604477	     -6.81556272	    -19.63032097	     22.71519066	     90.00000001	      0.00000000	      0.00000000
      1.55000000	     10.59442065	     -1.44784276	      9.53654731	     -0.07695801	      0.86855729	      0.19521713	    -15.54626277	     10.55036667	      2.62303818	     11.96758833	      0.92336647	      0.20887382	     25.03825943	     -9.73805452	     -7.54060922	     19.37024381	      1.23588610	     -1.37357806	     27.65337123	     -3.56314099	      0.48264238	     14.79148030	     -5.68816166	     -7.54060922	    -39.71312538	      5.60157004	     -1.25521961	     22.32435628	    -11.11270186	     -1.86805866	     41.09030541	     90.00000001	      0.00000000	      0.00000000	     11.91022570	     -6.79566138	    -19.86189557	     22.60974242	     90.00000001	      0.00000000	      0.00000000
      1.56000000	     10.92680178	     -1.37422317	      9.36574726	     -0.06802335	      0.86784962	      0.19452370	    -17.02895095	     10.41185723	      3.24599906	     11.19996319	      1.16249617	      0.19547623	     25.09673967	     -9.55750964	     -7.53668979	     19.12682398	      1.10513105	     -3.17308210	     25.54247957	     -3.36830224	      0.44580037	     15.38588992	     -2.53722213	     -7.53668979	    -39.96885725	      5.55683883	     -1.24113751	     22.74528228	    -11.23184619	     -1.32124168	     41.45770444	     90.00000001	      0.00000000	      0.00000000	     11.75390804	     -6.67933127	    -20.67295390	     22.50734697	     90.00000001	      0.00000000	      0.00000000
      1.57000000	     10.84931893	     -1.53106898	      9.23476660	     -0.05956708	      0.86618984	      0.19425841	    -17.56861945	     10.68998217	      3.24264486	     11.27545425	      0.94333305	      0.19679380	     25.62870477	     -9.34415855	     -7.53599471	     19.40344218	      0.79741195	     -3.68394721	     23.78818486	     -2.67397068	      0.41518215	     15.31874458	     -1.44484802	     -7.53599471	    -39.78590055	      5.62940760	     -1.07189583	     23.13358178	    -11.24877033	     -1.14356232	     41.63085973	     90.00000001	      0.00000000	      0.00000000	     11.57292183	     -6.64348363	    -20.70292995	     22.50189472	     90.00000001	      0.00000000	      0.00000000
      1.58000000	     11.10127762	     -1.41592971	      9.04004501	     -0.05060916	      0.86529273	      0.19351449	    -18.78107707	     10.44255107	      3.46775346	     10.91307229	      1.20496521	      0.19046904	     25.84099977	     -8.89847552	     -7.53482335	     19.04694098	      0.85419934	     -4.59293677	     22.02613937	     -2.36836061	      0.38442865	     15.50656786	      0.41338697	     -7.53482335	    -39.95665891	      5.50150671	     -1.07489022	     23.50369472	    -11.28603717	     -0.73922786	     41.89040740	     90.00000001	      0.00000000	      0.00000000	     11.38621525	     -6.62382281	    -20.95086607	     22.50182120	     90.00000001	      0.00000000	      0.00000000
